<mxfile host="app.diagrams.net" modified="2020-10-05T12:46:30.294Z" agent="5.0 (X11; Linux x86_64) AppleWebKit/537.36 (KHTML, like Gecko) Chrome/85.0.4183.121 Safari/537.36" etag="vGi2_Tee37I20cJ_Qyyd" version="13.7.7" type="github">
  <diagram id="UFlFh5MQDKWD6-GYsLOP" name="Page-1">
    <mxGraphModel dx="3527" dy="2709" grid="1" gridSize="10" guides="1" tooltips="1" connect="1" arrows="1" fold="1" page="1" pageScale="1" pageWidth="827" pageHeight="1169" math="0" shadow="0">
      <root>
        <mxCell id="0" />
        <mxCell id="1" parent="0" />
        <mxCell id="t4K9LxY03uF1SbGDm65Z-2" value="" style="rounded=0;whiteSpace=wrap;html=1;" vertex="1" parent="1">
          <mxGeometry x="-800" y="-1130" width="1610" height="1380" as="geometry" />
        </mxCell>
        <mxCell id="t4K9LxY03uF1SbGDm65Z-4" value="" style="rounded=0;whiteSpace=wrap;html=1;" vertex="1" parent="1">
          <mxGeometry x="-760" y="-1060" width="1520" height="100" as="geometry" />
        </mxCell>
        <mxCell id="t4K9LxY03uF1SbGDm65Z-5" value="" style="rounded=0;whiteSpace=wrap;html=1;" vertex="1" parent="1">
          <mxGeometry x="-750" y="-840" width="680" height="130" as="geometry" />
        </mxCell>
        <mxCell id="t4K9LxY03uF1SbGDm65Z-7" value="" style="rounded=0;whiteSpace=wrap;html=1;" vertex="1" parent="1">
          <mxGeometry x="-740" y="-470" width="1490" height="320" as="geometry" />
        </mxCell>
        <mxCell id="t4K9LxY03uF1SbGDm65Z-12" value="&lt;span style=&quot;font-size: 50px&quot;&gt;RESULTAT DE LA RECHERCHE&lt;/span&gt;" style="text;html=1;strokeColor=none;fillColor=none;align=center;verticalAlign=middle;whiteSpace=wrap;rounded=0;" vertex="1" parent="1">
          <mxGeometry x="-690" y="-450" width="1410" height="260" as="geometry" />
        </mxCell>
        <mxCell id="t4K9LxY03uF1SbGDm65Z-13" value="&lt;font style=&quot;font-size: 50px&quot;&gt;barre de recherche&lt;/font&gt;" style="text;html=1;strokeColor=none;fillColor=none;align=center;verticalAlign=middle;whiteSpace=wrap;rounded=0;" vertex="1" parent="1">
          <mxGeometry x="-785" y="-815" width="750" height="80" as="geometry" />
        </mxCell>
        <mxCell id="t4K9LxY03uF1SbGDm65Z-14" value="&lt;span style=&quot;font-size: 50px&quot;&gt;Titre de l&#39;application&lt;/span&gt;" style="text;html=1;strokeColor=none;fillColor=none;align=center;verticalAlign=middle;whiteSpace=wrap;rounded=0;" vertex="1" parent="1">
          <mxGeometry x="-740" y="-1050" width="1410" height="80" as="geometry" />
        </mxCell>
        <mxCell id="t4K9LxY03uF1SbGDm65Z-15" value="" style="rounded=0;whiteSpace=wrap;html=1;" vertex="1" parent="1">
          <mxGeometry x="100" y="-830" width="560" height="100" as="geometry" />
        </mxCell>
        <mxCell id="t4K9LxY03uF1SbGDm65Z-17" value="&lt;font style=&quot;font-size: 40px&quot;&gt;BOUTTON RECHERCHE&lt;/font&gt;" style="text;html=1;strokeColor=none;fillColor=none;align=center;verticalAlign=middle;whiteSpace=wrap;rounded=0;" vertex="1" parent="1">
          <mxGeometry x="140" y="-805" width="510" height="55" as="geometry" />
        </mxCell>
      </root>
    </mxGraphModel>
  </diagram>
</mxfile>
